<mxfile host="app.diagrams.net" modified="2023-04-12T11:54:51.969Z" agent="Mozilla/5.0 (Windows NT 10.0; Win64; x64) AppleWebKit/537.36 (KHTML, like Gecko) Chrome/111.0.0.0 Safari/537.36" version="21.1.7" etag="Ub818PGlT3nnb3DdQHFX" type="github">
  <diagram name="Страница 1" id="_cQADoL_UL_fC3DWnsDb">
    <mxGraphModel>
      <root>
        <mxCell id="0" />
        <mxCell id="1" parent="0" />
      </root>
    </mxGraphModel>
  </diagram>
</mxfile>
